first trial
nRows=29
nColumns=38

# SIMM Motion File Header:
name Sujet_07_velo_100.mvnx
datacolumns 38
datarows 29
otherdata 1
range 7.7670 8.2330
endheader
time pelvis_tilt  pelvis_list  pelvis_rotation  pelvis_tx  pelvis_ty  pelvis_tz  hip_flexion_r  hip_adduction_r  hip_rotation_r  knee_angle_r  ankle_angle_r  subtalar_angle_r  mtp_angle_r  hip_flexion_l  hip_adduction_l  hip_rotation_l  knee_angle_l  ankle_angle_l  subtalar_angle_l  mtp_angle_l  lumbar_extension  lumbar_bending  lumbar_rotation  arm_flex_r  arm_add_r  arm_rot_r  elbow_flex_r  pro_sup_r  wrist_flex_r  wrist_dev_r  arm_flex_l  arm_add_l  arm_rot_l  elbow_flex_l  pro_sup_l  wrist_flex_l  wrist_dev_l
7.7670	-28.0389	-5.0785	-60.3629	0.0000	1.2500	-0.0000	88.3046	0.5156	-4.3129	98.6267	15.1850	-8.0590	0.0000	52.4712	-12.2107	-7.9996	32.5868	-14.4918	1.4343	0.0000	-17.9761	-0.1289	3.1284	106.5944	-4.0115	23.1660	16.6920	65.5673	-48.3067	-38.3695	87.6679	-3.1844	40.8350	13.0691	37.6084	-46.0138	-49.6820	
7.7830	-28.1167	-5.3571	-60.4936	0.0000	1.2500	-0.0000	89.7825	0.5908	-4.3011	97.0957	16.4014	-8.8668	-0.0000	51.6273	-12.1165	-8.1972	34.2112	-13.3749	0.8233	0.0000	-18.0078	0.0742	3.3132	106.8528	-3.9169	23.3596	16.6427	65.8562	-48.3054	-38.4367	87.7058	-2.9659	40.5161	12.5829	37.4435	-45.8595	-49.7929	
7.8000	-28.1574	-5.4940	-60.3993	0.0000	1.2500	-0.0000	90.5664	0.4001	-4.4472	94.6986	16.9772	-9.1811	0.0000	51.5120	-12.0549	-8.5387	37.1074	-12.0018	0.4202	-0.0000	-18.0541	0.2909	3.4192	106.9789	-3.8413	23.5774	16.6294	66.0484	-48.2739	-38.4750	87.7776	-2.7216	40.3406	12.1542	37.2289	-45.6994	-49.8895	
7.8170	-28.1225	-5.4738	-60.0852	0.0000	1.2500	-0.0000	90.5316	-0.0795	-4.7663	91.3662	16.8407	-8.8852	0.0000	52.2698	-12.0973	-9.2452	41.5908	-10.4872	0.4511	-0.0000	-18.1303	0.5186	3.4353	106.9548	-3.8127	23.8577	16.6566	66.0699	-48.1854	-38.4477	87.9185	-2.4547	40.4194	11.7894	36.8775	-45.5271	-49.9704	
7.8330	-28.0497	-5.3127	-59.5467	0.0000	1.2500	-0.0000	89.7990	-0.8134	-5.2527	87.1590	16.0418	-8.1782	0.0000	53.7490	-12.1869	-10.1012	47.3389	-8.6922	0.6797	0.0000	-18.2186	0.7610	3.3723	106.7995	-3.8050	24.1618	16.7207	65.9947	-48.0667	-38.3916	88.0921	-2.1633	40.6405	11.4816	36.4795	-45.3490	-50.0367	
7.8500	-27.9765	-4.9770	-58.8430	0.0000	1.2500	-0.0000	88.4034	-1.6878	-5.9907	82.4279	14.7670	-7.2629	0.0000	55.5992	-12.2993	-10.4704	53.4339	-7.0208	0.9554	-0.0000	-18.2798	0.9575	3.2321	106.4780	-3.7525	24.4135	16.7760	65.9079	-47.9814	-38.3719	88.1978	-1.8993	40.9376	11.2686	36.1317	-45.2356	-50.1036	
7.8670	-27.8928	-4.3981	-57.9578	0.0000	1.2500	-0.0000	86.2458	-2.6938	-7.2168	77.1478	13.1203	-6.1212	-0.0000	57.7729	-12.4092	-10.0619	59.7957	-5.7081	1.2978	0.0000	-18.2955	1.0743	2.9979	105.8659	-3.6202	24.6313	16.7591	65.7917	-47.9643	-38.4377	88.1742	-1.6797	41.3456	11.1727	35.8427	-45.2171	-50.1802	
7.8830	-27.7979	-3.6462	-56.9092	0.0000	1.2500	-0.0000	83.4232	-3.7862	-8.7791	71.3209	11.0065	-4.7524	-0.0000	60.3329	-12.4767	-9.1935	66.5135	-4.5276	1.6955	-0.0000	-18.2845	1.1435	2.6861	105.0871	-3.4420	24.7975	16.7317	65.6633	-47.9804	-38.5395	88.0822	-1.4866	41.8306	11.1735	35.6053	-45.2633	-50.2577	
7.9000	-27.7455	-2.8932	-55.8055	0.0000	1.2500	-0.0000	80.2670	-4.8226	-10.1588	65.3688	8.3398	-3.3634	0.0000	63.0975	-12.4385	-8.1376	72.9342	-3.2059	1.9673	0.0000	-18.2650	1.2036	2.3485	104.4782	-3.2559	24.7812	16.8380	65.6619	-47.9878	-38.5939	88.0044	-1.3198	42.2240	11.2444	35.4929	-45.3542	-50.3242	
7.9170	-27.7549	-2.1631	-54.6367	0.0000	1.2500	-0.0000	76.7438	-5.8041	-11.2464	59.2609	4.9998	-1.9416	-0.0000	66.0681	-12.2545	-6.8292	78.9923	-1.6959	2.0928	0.0000	-18.2538	1.2587	1.9845	104.2144	-3.0633	24.4341	17.2220	65.9357	-47.9685	-38.5363	87.9543	-1.1726	42.4610	11.3714	35.5467	-45.4893	-50.3720	
7.9330	-27.8050	-1.4273	-53.4091	0.0000	1.2500	-0.0000	72.8804	-6.7320	-12.1944	53.0669	1.1300	-0.5700	0.0000	69.2400	-11.9187	-5.3680	84.7544	-0.0515	2.1088	0.0000	-18.2355	1.3054	1.5949	104.1231	-2.8589	23.9053	17.7459	66.3408	-47.9404	-38.4314	87.9178	-1.0523	42.6064	11.5677	35.7253	-45.6691	-50.4089	
7.9500	-27.9003	-0.7759	-52.2530	0.0000	1.2500	-0.0000	69.1009	-7.5342	-12.8049	47.3813	-2.9910	0.4470	0.0000	72.4053	-11.4877	-4.2502	89.7652	1.8486	1.9292	-0.0000	-18.1792	1.3714	1.2340	104.0170	-2.6763	23.5090	18.1288	66.5746	-47.9158	-38.3905	87.9364	-0.9783	42.6843	11.8463	35.9772	-45.8749	-50.4461	
7.9670	-28.0656	-0.2567	-51.1898	0.0000	1.2500	-0.0000	65.4311	-8.2629	-12.8668	42.1948	-7.7253	1.0504	-0.0000	75.5585	-11.0132	-3.6665	93.9333	4.1930	1.5653	0.0000	-18.0578	1.4843	0.9167	103.8026	-2.5163	23.4059	18.2142	66.4688	-47.9028	-38.4710	88.0687	-0.9774	42.6523	12.2652	36.3390	-46.1290	-50.4950	
7.9830	-28.2833	0.1818	-50.1955	0.0000	1.2500	-0.0000	61.8410	-8.9441	-12.5521	37.4921	-12.7299	1.4141	-0.0000	78.6915	-10.5043	-3.4200	97.3467	6.7924	1.0436	0.0000	-17.8972	1.6147	0.6275	103.5714	-2.3817	23.4348	18.1523	66.1866	-47.8942	-38.6162	88.2567	-1.0215	42.5522	12.7601	36.7689	-46.4092	-50.5441	
8.0000	-28.4967	0.5955	-49.3353	0.0000	1.2500	-0.0000	58.6836	-9.4781	-12.1748	33.8606	-16.6897	1.6351	0.0000	81.5946	-10.0019	-3.3898	99.8212	9.1993	0.2923	0.0000	-17.7464	1.7048	0.3749	103.4122	-2.3116	23.4247	18.1207	65.9216	-47.8792	-38.7662	88.3683	-1.0487	42.5356	13.1662	37.1014	-46.6292	-50.5711	
8.0170	-28.6904	0.9940	-48.6412	0.0000	1.2500	-0.0000	56.0336	-9.7937	-11.6799	31.4733	-19.2490	1.7290	0.0000	84.2943	-9.5373	-3.5843	101.3469	11.4083	-0.9135	0.0000	-17.6214	1.7371	0.1677	103.4005	-2.3534	23.3004	18.1964	65.7476	-47.8529	-38.9143	88.3113	-1.0280	42.7302	13.4132	37.2158	-46.7635	-50.5726	
8.0330	-28.8834	1.3652	-48.0827	0.0000	1.2500	-0.0000	53.8282	-9.9915	-11.0549	30.1680	-20.7624	1.7222	-0.0000	86.7717	-9.1169	-3.9601	101.9403	13.4167	-2.3281	0.0000	-17.5073	1.7302	-0.0023	103.4586	-2.4601	23.1352	18.3055	65.5931	-47.8202	-39.0666	88.1776	-0.9920	43.0086	13.5778	37.2374	-46.8374	-50.5519	
8.0500	-29.0692	1.7296	-47.6320	0.0000	1.2500	-0.0000	52.2215	-10.1815	-10.6658	30.0520	-20.9734	1.6120	0.0000	88.7547	-8.7256	-4.3025	101.4509	14.7942	-3.4001	-0.0000	-17.4069	1.6814	-0.1522	103.4464	-2.5278	22.9815	18.4001	65.4357	-47.7840	-39.1825	88.1117	-0.9741	43.1398	13.7203	37.3725	-46.8403	-50.4967	
8.0670	-29.2603	2.1280	-47.2314	0.0000	1.2500	-0.0000	51.2230	-10.4323	-10.7284	31.1545	-19.4526	1.2456	0.0000	90.2675	-8.3265	-4.4693	99.7463	15.2803	-3.9648	-0.0000	-17.3090	1.5885	-0.2973	103.2224	-2.5370	22.8721	18.5042	65.2590	-47.7419	-39.2300	88.1578	-0.9792	42.9721	13.8749	37.7725	-46.7601	-50.3952	
8.0830	-29.4457	2.5186	-46.9392	0.0000	1.2500	-0.0000	50.8311	-10.6555	-11.0046	33.4525	-16.6301	0.7039	0.0000	91.2923	-7.9438	-4.5747	96.9512	15.1532	-4.2975	-0.0000	-17.2251	1.4541	-0.4222	102.9297	-2.5061	22.7754	18.5927	65.0788	-47.6960	-39.2410	88.2718	-1.0013	42.6572	14.0062	38.2858	-46.6089	-50.2592	
8.1000	-29.5857	2.7955	-46.9023	0.0000	1.2500	-0.0000	51.1830	-10.7137	-11.1833	36.9707	-13.5197	0.2870	-0.0000	91.4957	-7.6385	-4.7799	93.2952	14.8015	-4.5332	0.0000	-17.1915	1.2832	-0.4983	102.8572	-2.3890	22.6486	18.5429	64.9206	-47.6558	-39.2703	88.4670	-1.0556	42.4185	14.0697	38.6640	-46.4134	-50.1119	
8.1170	-29.6871	2.9538	-47.1940	0.0000	1.2500	-0.0000	52.4397	-10.5287	-11.2756	42.0139	-10.1157	0.0867	-0.0000	90.7294	-7.4002	-5.1274	88.6828	14.4071	-4.6812	0.0000	-17.2339	1.0490	-0.5096	103.1630	-2.1506	22.3992	18.3461	64.8072	-47.6220	-39.3091	88.8215	-1.1522	42.3736	14.0961	38.8104	-46.2075	-49.9621	
8.1330	-29.7454	2.9962	-47.7433	0.0000	1.2500	-0.0000	54.4335	-10.1622	-11.2848	48.2634	-6.4125	-0.0452	-0.0000	89.1460	-7.2126	-5.5727	83.2112	13.7966	-4.7293	0.0000	-17.3243	0.7779	-0.4734	103.6912	-1.8303	22.1173	18.0110	64.7147	-47.5940	-39.3663	89.2575	-1.2806	42.4060	14.0562	38.8225	-45.9575	-49.8014	
8.1500	-29.7038	2.8287	-48.4816	0.0000	1.2500	-0.0000	56.8054	-9.6756	-10.8988	54.8325	-3.4063	-0.1326	-0.0000	86.8618	-7.1276	-6.1538	77.3985	12.8168	-4.7157	0.0000	-17.4180	0.5548	-0.4089	104.2569	-1.4928	22.0342	17.4411	64.5977	-47.5799	-39.5234	89.5547	-1.4263	42.3881	13.8166	38.7434	-45.5872	-49.6254	
8.1670	-29.5163	2.3574	-49.4093	0.0000	1.2500	-0.0000	59.5220	-9.0493	-9.9450	61.7161	-1.5993	-0.0872	-0.0000	83.7326	-7.1477	-7.0994	71.2177	11.4468	-4.6434	0.0000	-17.5015	0.4272	-0.3111	104.7989	-1.1586	22.3519	16.5331	64.3863	-47.5936	-39.8838	89.6208	-1.5870	42.3132	13.2830	38.5227	-45.0114	-49.4109	
8.1830	-29.2172	1.6854	-50.5186	0.0000	1.2500	-0.0000	62.6063	-8.2239	-8.6708	68.9315	-0.4845	0.0551	0.0000	79.9049	-7.2258	-8.2437	64.6808	9.7010	-4.4524	0.0000	-17.5889	0.3475	-0.1836	105.3737	-0.7985	22.8654	15.3907	64.1484	-47.6233	-40.3446	89.5476	-1.7657	42.1871	12.5457	38.2048	-44.3144	-49.1795	
8.2000	-28.8715	1.0136	-51.7302	0.0000	1.2500	-0.0000	65.7854	-7.2157	-7.3740	75.6335	0.4508	0.1252	0.0000	75.9165	-7.3891	-9.0264	58.3882	7.4652	-4.0662	-0.0000	-17.6780	0.2582	-0.0580	105.9712	-0.4033	23.1978	14.2262	64.0468	-47.6377	-40.6779	89.3916	-1.9568	41.9007	11.7530	37.9780	-43.6755	-48.9954	
8.2170	-28.4389	0.3982	-53.1032	0.0000	1.2500	-0.0000	69.0343	-5.9395	-6.0697	81.6859	1.1327	0.2050	0.0000	71.7570	-7.7420	-9.1605	52.4274	4.5124	-3.3845	0.0000	-17.7736	0.1281	0.0509	106.5905	0.0427	23.1300	13.0620	64.1805	-47.6094	-40.7398	89.1176	-2.1976	41.3266	10.9353	37.9774	-43.1846	-48.9017	
8.2330	-27.9568	-0.2090	-54.5732	0.0000	1.2500	-0.0000	72.3600	-4.4490	-4.8074	87.2243	1.6316	0.2328	-0.0000	67.4024	-8.2319	-8.9947	46.7239	1.0645	-2.5171	-0.0000	-17.8698	-0.0120	0.1580	107.2337	0.5200	22.8806	11.8764	64.4512	-47.5628	-40.6739	88.7611	-2.4507	40.5904	10.0688	38.0702	-42.7522	-48.8560	
